<?xml version="1.0" encoding="UTF-8"?>
<!DOCTYPE svg PUBLIC "-//W3C//DTD SVG 1.1//EN" "http://www.w3.org/Graphics/SVG/1.1/DTD/svg11.dtd">
<!-- Creator: CorelDRAW 2021 (64-Bit) -->
<svg xmlns="http://www.w3.org/2000/svg" xml:space="preserve" width="60mm" height="15mm" version="1.1" style="shape-rendering:geometricPrecision; text-rendering:geometricPrecision; image-rendering:optimizeQuality; fill-rule:evenodd; clip-rule:evenodd"
viewBox="0 0 89.46 12.75"
 xmlns:xlink="http://www.w3.org/1999/xlink"
 xmlns:xodm="http://www.corel.com/coreldraw/odm/2003">
 <defs>
  <style type="text/css">
   <![CDATA[
    .str0 {stroke:#242424;stroke-width:0.12;stroke-miterlimit:22.9256}
    .fil1 {fill:#242424}
    .fil0 {fill:#242424;fill-rule:nonzero}
   ]]>
  </style>
 </defs>
 <g id="Слой_x0020_1">
  <metadata id="CorelCorpID_0Corel-Layer"/>
  <path class="fil0 str0" d="M51.75 5.48c-0.63,-0.64 -1.91,-1.01 -3.49,-1.01 -2.19,0 -3.93,0.81 -3.93,1.91 0,1.13 1.77,1.93 3.99,1.93 1.48,0 2.75,-0.39 3.46,-1.03l-0.9 0c-0.61,0.48 -1.64,0.7 -2.56,0.7 -1.8,0 -3.23,-0.68 -3.23,-1.59 0,-0.85 1.28,-1.57 3.18,-1.57 1.63,0 2.37,0.52 2.58,0.68l0.9 0zm1.23 2.76l0.76 0 0 -3.37 1.36 0c1.79,0 2.25,0.45 2.25,0.84 0,0.84 -1.82,0.85 -2.25,0.85l-0.6 0 2.57 1.68 0.94 0 -2.13 -1.38c1.35,-0.05 2.23,-0.51 2.23,-1.11 0,-0.31 -0.16,-1.21 -3.01,-1.21l-2.12 0 0 3.71zm6.2 0l4.15 0 0 -0.34 -3.39 0 0 -1.36 3.28 0 0 -0.34 -3.28 0 0 -1.34 3.39 0 0 -0.34 -4.15 0 0 3.71zm4.84 0l0.82 0 1.09 -1.24 3.52 0 1.09 1.24 0.82 0 -3.24 -3.71 -0.84 0 -3.26 3.71zm2.21 -1.58l1.47 -1.7 1.45 1.7 -2.92 0zm6.23 1.58l0.76 0 0 -3.37 1.73 0 0 -0.34 -4.21 0 0 0.34 1.73 0 0 3.37zm3.33 0l0.76 0 0 -3.71 -0.76 0 0 3.71zm4.75 0l0.72 0 3.14 -3.71 -0.83 0 -2.67 3.24 -2.65 -3.24 -0.83 0 3.12 3.71zm4.71 0l4.15 0 0 -0.34 -3.39 0 0 -1.36 3.28 0 0 -0.34 -3.28 0 0 -1.34 3.39 0 0 -0.34 -4.15 0 0 3.71z"/>
  <polygon class="fil1 str0" points="22.18,0.19 15.46,9.85 8.65,0.1 0.11,12.68 2.05,12.65 8.65,2.95 15.41,12.65 22.2,2.91 28.83,12.63 30.79,12.63 "/>
  <polygon class="fil1 str0" points="32.43,12.63 40.93,0.12 39.04,0.12 32.44,9.82 25.84,0.12 23.95,0.12 "/>
 </g>
</svg>
