<?xml version="1.0" encoding="UTF-8"?> <svg xmlns="http://www.w3.org/2000/svg" width="184" height="172" fill="none"><ellipse cx="61.5" cy="98" rx="61.5" ry="62" fill="#000" fill-opacity=".3"></ellipse><path d="M130.895 57.324l-47.228 47.228-25.729-25.657L47.833 89l35.834 35.834L141 67.5l-10.105-10.176zM98 17.334C58.44 17.334 26.333 49.44 26.333 89c0 39.56 32.107 71.667 71.667 71.667S169.667 128.56 169.667 89 137.56 17.334 98 17.334zm0 129c-31.677 0-57.333-25.657-57.333-57.334 0-31.676 25.656-57.333 57.333-57.333S155.333 57.324 155.333 89c0 31.677-25.656 57.334-57.333 57.334z" fill="#fff"></path><path d="M130.895 54.324l-47.228 47.228-25.729-25.657L47.833 86l35.834 35.834L141 64.5l-10.105-10.176zM98 14.334C58.44 14.334 26.333 46.44 26.333 86c0 39.56 32.107 71.667 71.667 71.667S169.667 125.56 169.667 86 137.56 14.334 98 14.334zm0 129c-31.677 0-57.333-25.657-57.333-57.334 0-31.676 25.656-57.333 57.333-57.333S155.333 54.324 155.333 86c0 31.677-25.656 57.334-57.333 57.334z" fill="#C4C4C4"></path><path d="M130.895 54.324l-47.228 47.228-25.729-25.657L47.833 86l35.834 35.834L141 64.5l-10.105-10.176zM98 14.334C58.44 14.334 26.333 46.44 26.333 86c0 39.56 32.107 71.667 71.667 71.667S169.667 125.56 169.667 86 137.56 14.334 98 14.334zm0 129c-31.677 0-57.333-25.657-57.333-57.334 0-31.676 25.656-57.333 57.333-57.333S155.333 54.324 155.333 86c0 31.677-25.656 57.334-57.333 57.334z" fill="#C4C4C4"></path><path d="M130.895 54.324l-47.228 47.228-25.729-25.657L47.833 86l35.834 35.834L141 64.5l-10.105-10.176zM98 14.334C58.44 14.334 26.333 46.44 26.333 86c0 39.56 32.107 71.667 71.667 71.667S169.667 125.56 169.667 86 137.56 14.334 98 14.334zm0 129c-31.677 0-57.333-25.657-57.333-57.334 0-31.676 25.656-57.333 57.333-57.333S155.333 54.324 155.333 86c0 31.677-25.656 57.334-57.333 57.334z" fill="#C4C4C4"></path><path d="M130.895 54.324l-47.228 47.228-25.729-25.657L47.833 86l35.834 35.834L141 64.5l-10.105-10.176zM98 14.334C58.44 14.334 26.333 46.44 26.333 86c0 39.56 32.107 71.667 71.667 71.667S169.667 125.56 169.667 86 137.56 14.334 98 14.334zm0 129c-31.677 0-57.333-25.657-57.333-57.334 0-31.676 25.656-57.333 57.333-57.333S155.333 54.324 155.333 86c0 31.677-25.656 57.334-57.333 57.334z" fill="#C4C4C4"></path><path d="M130.895 57.324l-47.228 47.228-25.729-25.657L47.833 89l35.834 35.834L141 67.5l-10.105-10.176z" fill="#fff"></path><path d="M130.895 54.324l-47.228 47.228-25.729-25.657L47.833 86l35.834 35.834L141 64.5l-10.105-10.176z" fill="#ED1C29"></path></svg> 