<?xml version="1.0" encoding="UTF-8"?> <svg xmlns="http://www.w3.org/2000/svg" width="171" height="162" viewBox="0 0 171 162" fill="none"><ellipse cx="101.37" cy="64.0232" rx="45.5549" ry="45.9654" fill="black" fill-opacity="0.3"></ellipse><path d="M15.0108 112.145L26.2058 104.572V153.164C26.2058 157.707 29.8927 161.387 34.4378 161.387C38.9843 161.387 42.6711 157.707 42.6711 153.164V93.1252H45.7573V153.164C45.7573 157.707 49.4442 161.387 53.9893 161.387C58.5358 161.387 62.2226 157.707 62.2226 153.164V50.3035C63.8693 50.9759 65.6844 51.6517 67.5601 52.1944C69.5563 52.7597 71.5685 53.2127 73.7832 53.2266C75.4358 53.204 77.4127 53.0058 79.4589 51.5692C80.4564 50.8576 81.3573 49.7881 81.8919 48.6022C82.4353 47.4163 82.6344 46.1852 82.6344 45.0599C82.5498 41.6859 81.2674 38.8918 79.136 35.1679C77.0512 31.6356 73.9743 27.3683 69.5996 22.0222L72.4215 17.157C73.1586 15.8854 72.7245 14.2579 71.4527 13.5216L63.7694 9.0761C62.4976 8.3405 60.8669 8.77348 60.1305 10.0451L59.0678 11.8768C59.394 12.5938 59.6697 13.3387 59.8908 14.1062L61.2691 11.7298L70.3906 17.0081L62.9377 29.8604L58.1362 27.0836C57.8726 27.5146 57.5902 27.9323 57.2886 28.336C57.4131 28.3619 57.5356 28.4018 57.6528 28.469C58.2368 28.8069 58.4345 29.5525 58.0976 30.1351C57.7594 30.7184 57.013 30.9173 56.429 30.5794C56.174 30.4324 55.9982 30.2056 55.9036 29.9509C55.3183 30.5528 54.6878 31.1108 54.0166 31.6169L59.2136 34.6245C60.4867 35.3601 62.1161 34.9271 62.8538 33.6555L63.8719 31.8996C66.6718 35.4838 68.6601 38.365 69.9572 40.5692C70.2734 41.1032 70.5478 41.5974 70.7828 42.0483C70.6956 42.0237 70.607 41.9985 70.5191 41.9725C68.3538 41.3506 65.8362 40.3204 63.9318 39.4551C62.9743 39.0235 62.166 38.6324 61.604 38.3537C61.3244 38.216 61.1046 38.105 60.9615 38.0305C60.817 37.9573 60.7637 37.9274 60.7637 37.9274C59.9913 37.521 59.1497 37.3142 58.2774 37.3142H53.4513C53.2342 37.3142 53.0212 37.3308 52.8101 37.3561H32.3071C32.3031 37.3554 32.2991 37.3547 32.2951 37.3541C32.096 37.3288 31.7777 37.3009 31.3536 37.3009C29.4625 37.249 25.1045 38.0365 21.2332 42.0802C17.8427 45.5886 14.8956 51.1229 13.0412 59.9681C12.7709 61.2564 12.5239 62.6125 12.3015 64.0451C12.3015 64.0491 12.3015 64.0538 12.3001 64.0584C11.4871 69.3227 11.0137 75.6192 11.0137 83.2086C11.0137 87.1027 11.1389 91.3394 11.4092 95.9519C11.5757 98.7785 13.9228 100.959 16.7234 100.961C16.8286 100.961 16.9325 100.957 17.0397 100.95C19.9761 100.778 22.2167 98.2611 22.0449 95.3273C21.7846 90.9038 21.6667 86.8753 21.668 83.2079C21.6667 76.0727 22.1155 70.311 22.8253 65.7012C22.828 65.6899 22.8306 65.6799 22.832 65.6686C23.041 64.3098 23.2741 63.0628 23.5238 61.9022C24.3068 58.2534 25.2577 55.5418 26.2052 53.5539V74.0462L23.1622 76.1047C23.1229 76.9148 23.0923 77.7415 23.067 78.5802L25.9229 76.6481L37.8716 94.2692L15.5435 109.374L3.59608 91.7524L9.73859 87.5962C9.72062 86.7928 9.7073 85.998 9.69931 85.2132L0.820801 91.2204L15.0108 112.145ZM44.2132 85.6981L37.8876 77.7169L41.5305 50.8988C42.3941 51.222 43.303 51.391 44.2119 51.3903H44.2132C44.2132 51.3903 44.2159 51.3903 44.2172 51.3903C45.1248 51.3903 46.0317 51.2214 46.894 50.8981L50.5395 77.7169L44.2132 85.6981ZM41.6823 42.7986H44.2132H46.7428L48.0079 47.7868L47.8155 48.0901C46.7728 48.9587 45.4957 49.3937 44.2119 49.395C42.9281 49.3937 41.6523 48.9594 40.611 48.0927L40.4172 47.7868L41.6823 42.7986Z" fill="white"></path><path d="M24.4436 83.0434L23.3513 83.8044L30.6695 94.2843L31.7617 93.5233L24.4436 83.0434Z" fill="white"></path><path d="M32.8436 116.987L28.0477 110.129C28.0891 111.128 28.1362 112.139 28.1889 113.159L31.5149 117.915L32.8436 116.987Z" fill="white"></path><path d="M44.2132 33.5662C52.4874 33.5662 59.1949 26.8663 59.1949 18.6015C59.1949 10.3368 52.4874 3.63684 44.2132 3.63684C35.939 3.63684 29.2314 10.3368 29.2314 18.6015C29.2314 26.8663 35.939 33.5662 44.2132 33.5662Z" fill="white"></path><path d="M88.0776 38.1876C84.1857 46.2827 83.0536 55.752 85.5634 65.108C91.1378 85.8884 112.524 98.2223 133.329 92.654C154.134 87.0857 166.481 65.7241 160.906 44.9429C155.331 24.161 133.946 11.8286 113.141 17.3969C105.745 19.3762 99.4265 23.3573 94.594 28.592L74.4874 21.6622L88.0776 38.1876ZM114.317 21.7806C132.669 16.869 151.599 27.7857 156.516 46.1163C161.434 64.4483 150.504 83.3567 132.153 88.2684C113.802 93.1801 94.8702 82.2637 89.9526 63.9316C85.0353 45.6011 95.966 26.6923 114.317 21.7806Z" fill="white"></path><path d="M107.457 78.4785C108.067 73.0398 109.155 69.4853 110.233 67.2804V79.9618C114.089 81.7757 118.391 82.7954 122.93 82.7954C127.471 82.7954 131.775 81.775 135.633 79.9596V67.3046C135.911 67.8741 136.191 68.5277 136.467 69.2902C137.251 71.4573 137.958 74.455 138.407 78.4777C140.927 76.949 143.203 75.0564 145.168 72.8764C144.204 67.8212 142.751 64.2539 141.044 61.6495C139.502 59.3099 137.698 57.8107 136.03 56.9801C134.365 56.1412 132.902 55.9741 132.07 55.9771C131.77 55.9771 131.546 55.9968 131.404 56.0157C131.402 56.0157 131.401 56.0157 131.401 56.0157H114.466C114.463 56.0157 114.461 56.0149 114.46 56.0149H114.458C114.317 55.9975 114.093 55.9771 113.794 55.9771C112.961 55.9748 111.499 56.1412 109.833 56.9801C107.307 58.2312 104.584 60.9687 102.679 65.8174C101.9 67.7841 101.227 70.1124 100.699 72.8809C102.66 75.0587 104.935 76.9497 107.457 78.4785Z" fill="#01ba9f"></path><path d="M122.932 53.3419C128.767 53.3419 133.497 48.6172 133.497 42.789C133.497 36.9608 128.767 32.2361 122.932 32.2361C117.097 32.2361 112.367 36.9608 112.367 42.789C112.367 48.6172 117.097 53.3419 122.932 53.3419Z" fill="#01ba9f"></path><path d="M14.19 110.503L25.385 102.93V151.523C25.385 156.065 29.0719 159.745 33.617 159.745C38.1635 159.745 41.8503 156.065 41.8503 151.523V91.4836H44.9365V151.523C44.9365 156.065 48.6234 159.745 53.1685 159.745C57.715 159.745 61.4018 156.065 61.4018 151.523V48.6619C63.0485 49.3343 64.8636 50.0101 66.7393 50.5528C68.7355 51.1181 70.7477 51.5711 72.9624 51.585C74.615 51.5624 76.5919 51.3642 78.6381 49.9276C79.6356 49.216 80.5365 48.1465 81.0711 46.9606C81.6145 45.7747 81.8136 44.5436 81.8136 43.4183C81.729 40.0443 80.4466 37.2502 78.3152 33.5263C76.2304 29.994 73.1535 25.7267 68.7788 20.3806L71.6007 15.5154C72.3378 14.2438 71.9037 12.6163 70.6319 11.88L62.9486 7.4345C61.6768 6.6989 60.0461 7.13188 59.3097 8.40354L58.247 10.2352C58.5732 10.9522 58.8489 11.6971 59.07 12.4646L60.4483 10.0882L69.5698 15.3665L62.1169 28.2188L57.3154 25.442C57.0518 25.873 56.7694 26.2907 56.4678 26.6944C56.5923 26.7203 56.7148 26.7602 56.832 26.8274C57.416 27.1653 57.6137 27.9109 57.2768 28.4935C56.9386 29.0768 56.1922 29.2757 55.6082 28.9378C55.3532 28.7908 55.1774 28.564 55.0828 28.3093C54.4975 28.9112 53.867 29.4692 53.1958 29.9753L58.3928 32.9829C59.6659 33.7185 61.2953 33.2855 62.033 32.0139L63.0511 30.258C65.851 33.8422 67.8393 36.7234 69.1364 38.9276C69.4526 39.4616 69.727 39.9558 69.962 40.4067C69.8748 40.3821 69.7862 40.3568 69.6983 40.3309C67.533 39.709 65.0154 38.6788 63.111 37.8135C62.1535 37.3819 61.3452 36.9908 60.7832 36.7121C60.5036 36.5744 60.2838 36.4634 60.1407 36.3889C59.9962 36.3157 59.9429 36.2858 59.9429 36.2858C59.1705 35.8794 58.3289 35.6726 57.4566 35.6726H52.6305C52.4134 35.6726 52.2004 35.6892 51.9893 35.7145H31.4863C31.4823 35.7138 31.4783 35.7131 31.4743 35.7125C31.2752 35.6872 30.9569 35.6593 30.5328 35.6593C28.6417 35.6074 24.2837 36.3949 20.4124 40.4386C17.0219 43.947 14.0748 49.4813 12.2204 58.3265C11.9501 59.6148 11.7031 60.9709 11.4807 62.4035C11.4807 62.4075 11.4807 62.4122 11.4793 62.4168C10.6663 67.6811 10.1929 73.9776 10.1929 81.567C10.1929 85.4611 10.3181 89.6978 10.5884 94.3103C10.7549 97.1369 13.102 99.3178 15.9026 99.3191C16.0078 99.3191 16.1117 99.3151 16.2189 99.3085C19.1553 99.1369 21.3959 96.6195 21.2241 93.6857C20.9638 89.2622 20.8459 85.2337 20.8472 81.5663C20.8459 74.4311 21.2947 68.6694 22.0045 64.0596C22.0072 64.0483 22.0098 64.0383 22.0112 64.027C22.2202 62.6682 22.4533 61.4212 22.703 60.2606C23.486 56.6118 24.4369 53.9002 25.3844 51.9123V72.4046L22.3414 74.4631C22.3021 75.2732 22.2715 76.0999 22.2462 76.9386L25.1021 75.0065L37.0508 92.6276L14.7227 107.733L2.77528 90.1108L8.91779 85.9546C8.89981 85.1512 8.8865 84.3564 8.87851 83.5716L0 89.5788L14.19 110.503ZM43.3924 84.0564L37.0668 76.0753L40.7097 49.2572C41.5733 49.5804 42.4822 49.7494 43.3911 49.7487H43.3924C43.3924 49.7487 43.3951 49.7487 43.3964 49.7487C44.304 49.7487 45.2109 49.5798 46.0732 49.2565L49.7187 76.0753L43.3924 84.0564ZM40.8615 41.157H43.3924H45.922L47.1871 46.1452L46.9947 46.4485C45.952 47.3171 44.6749 47.7521 43.3911 47.7534C42.1073 47.7521 40.8315 47.3178 39.7901 46.4511L39.5964 46.1452L40.8615 41.157Z" fill="#E5E5E5"></path><path d="M23.6228 81.4018L22.5305 82.1628L29.8487 92.6427L30.9409 91.8817L23.6228 81.4018Z" fill="#E5E5E5"></path><path d="M32.0228 115.345L27.2269 108.488C27.2683 109.487 27.3154 110.497 27.3681 111.517L30.6941 116.274L32.0228 115.345Z" fill="#E5E5E5"></path><path d="M43.3924 31.9246C51.6666 31.9246 58.3741 25.2247 58.3741 16.9599C58.3741 8.69517 51.6666 1.99524 43.3924 1.99524C35.1182 1.99524 28.4106 8.69517 28.4106 16.9599C28.4106 25.2247 35.1182 31.9246 43.3924 31.9246Z" fill="#E5E5E5"></path><path d="M87.2568 36.546C83.3649 44.6411 82.2328 54.1104 84.7426 63.4664C90.317 84.2468 111.703 96.5807 132.508 91.0124C153.313 85.4441 165.66 64.0825 160.085 43.3013C154.51 22.5194 133.125 10.187 112.32 15.7553C104.925 17.7346 98.6057 21.7157 93.7732 26.9504L73.6666 20.0206L87.2568 36.546ZM113.497 20.139C131.848 15.2274 150.778 26.1441 155.695 44.4747C160.613 62.8067 149.684 81.7151 131.332 86.6268C112.981 91.5385 94.0494 80.6221 89.1318 62.29C84.2145 43.9595 95.1452 25.0507 113.497 20.139Z" fill="#E5E5E5"></path></svg> 