<?xml version="1.0" encoding="UTF-8"?> <svg xmlns="http://www.w3.org/2000/svg" width="135" height="120" fill="none"><ellipse cx="55.5" cy="63.001" rx="55.5" ry="56" fill="#000" fill-opacity=".3"></ellipse><g clip-path="url(#clip0)"><path d="M42.552 119.685c-.42-.415-.441-2.543-.028-2.951.223-.221 1.195-.312 4.215-.397 3.543-.099 4.071-.16 5.444-.633 2.14-.738 3.521-1.617 4.898-3.116 2.292-2.496 2.426-3.542 2.563-20.012l.105-12.684h-8.54c-7.493 0-8.58-.04-8.86-.316-.465-.46-.465-4.926 0-5.386.28-.276 1.364-.315 8.836-.315h8.517v-7.42h-8.517c-7.472 0-8.556-.039-8.836-.315-.465-.46-.465-4.926 0-5.386.28-.277 1.364-.315 8.836-.315h8.517l-.004-19.804c-.005-24.238-.184-28.133-1.448-31.468-.76-2.008-3.119-3.867-6.064-4.782-.832-.258-2.193-.379-5.34-.473-3.433-.104-4.258-.184-4.414-.428-.328-.512-.24-2.738.12-3.094.287-.283 2.872-.315 25.442-.313 27.625.003 29.054.051 35.713 1.206 8.298 1.439 14.623 4.11 19.674 8.31 2.729 2.268 5.675 5.61 7.253 8.23 1.748 2.9 2.315 4.327 3.297 8.29 1.458 5.883 1.121 12.7-.934 18.884-.618 1.861-2.412 5.47-3.558 7.16-5.37 7.913-14.121 12.599-26.167 14.01-1.845.215-5.337.285-14.371.286l-11.934.002v7.42h25.986c23.352 0 26.018.032 26.305.315.465.46.465 4.927 0 5.386-.287.284-2.953.316-26.305.316H76.967l.004 10.278c.004 13.448.287 17.508 1.429 20.505.565 1.485 2.46 3.418 4.201 4.285 2.217 1.105 3.09 1.266 7.429 1.379 3.127.08 4.088.168 4.316.393.416.41.397 2.536-.026 2.953-.287.284-2.914.316-25.884.316s-25.597-.032-25.884-.316zm53.103-59.634c4.344-.783 8.388-3.046 11.867-6.641 3.392-3.505 5.476-7.742 6.309-12.828.443-2.7.451-8.618.018-11.83-1.534-11.35-7.76-18.388-18.178-20.552-2.398-.498-6.634-.717-9.58-.496-2.578.194-7.556.997-8.596 1.388l-.528.198v51.19l8.684-.096c5.385-.06 9.185-.187 10.004-.334z" fill="#EEE"></path></g><defs><clipPath id="clip0"><path fill="#fff" transform="translate(42)" d="M0 0h93v120H0z"></path></clipPath></defs></svg> 